<?xml version="1.0" encoding="UTF-8" standalone="no"?>
<!-- Created with Inkscape (http://www.inkscape.org/) -->

<svg
   width="126.45804mm"
   height="51.892441mm"
   viewBox="0 0 126.45804 51.892441"
   version="1.1"
   id="svg1"
   xmlns:inkscape="http://www.inkscape.org/namespaces/inkscape"
   xmlns:sodipodi="http://sodipodi.sourceforge.net/DTD/sodipodi-0.dtd"
   xmlns="http://www.w3.org/2000/svg"
   xmlns:svg="http://www.w3.org/2000/svg">
  <sodipodi:namedview
     id="namedview1"
     pagecolor="#ffffff"
     bordercolor="#000000"
     borderopacity="0.25"
     inkscape:showpageshadow="2"
     inkscape:pageopacity="0.0"
     inkscape:pagecheckerboard="0"
     inkscape:deskcolor="#d1d1d1"
     inkscape:document-units="mm" />
  <defs
     id="defs1">
    <clipPath
       clipPathUnits="userSpaceOnUse"
       id="clipPath260">
      <path
         d="M 0,595.28 H 841.89 V 0 H 0 Z"
         transform="translate(-434.62401,-262.86431)"
         id="path260" />
    </clipPath>
    <clipPath
       clipPathUnits="userSpaceOnUse"
       id="clipPath262">
      <path
         d="M 0,595.28 H 841.89 V 0 H 0 Z"
         transform="translate(-495.28611,-261.79001)"
         id="path262" />
    </clipPath>
    <clipPath
       clipPathUnits="userSpaceOnUse"
       id="clipPath264">
      <path
         d="M 0,595.28 H 841.89 V 0 H 0 Z"
         transform="translate(-447.76271,-306.26221)"
         id="path264" />
    </clipPath>
    <clipPath
       clipPathUnits="userSpaceOnUse"
       id="clipPath266">
      <path
         d="M 0,595.28 H 841.89 V 0 H 0 Z"
         transform="translate(-481.25981,-306.88721)"
         id="path266" />
    </clipPath>
    <clipPath
       clipPathUnits="userSpaceOnUse"
       id="clipPath268">
      <path
         d="M 0,595.28 H 841.89 V 0 H 0 Z"
         transform="translate(-452.30081,-363.51861)"
         id="path268" />
    </clipPath>
    <clipPath
       clipPathUnits="userSpaceOnUse"
       id="clipPath270">
      <path
         d="M 0,595.28 H 841.89 V 0 H 0 Z"
         transform="translate(-438.09671,-352.53321)"
         id="path270" />
    </clipPath>
    <clipPath
       clipPathUnits="userSpaceOnUse"
       id="clipPath272">
      <path
         d="M 0,595.28 H 841.89 V 0 H 0 Z"
         transform="translate(-444.41021,-353.89501)"
         id="path272" />
    </clipPath>
    <clipPath
       clipPathUnits="userSpaceOnUse"
       id="clipPath274">
      <path
         d="M 0,595.28 H 841.89 V 0 H 0 Z"
         transform="translate(-448.62401,-376.12301)"
         id="path274" />
    </clipPath>
    <clipPath
       clipPathUnits="userSpaceOnUse"
       id="clipPath276">
      <path
         d="M 0,595.28 H 841.89 V 0 H 0 Z"
         transform="translate(-430.99121,-379.51511)"
         id="path276" />
    </clipPath>
    <clipPath
       clipPathUnits="userSpaceOnUse"
       id="clipPath278">
      <path
         d="M 0,595.28 H 841.89 V 0 H 0 Z"
         transform="translate(-436.18651,-375.67971)"
         id="path278" />
    </clipPath>
    <clipPath
       clipPathUnits="userSpaceOnUse"
       id="clipPath280">
      <path
         d="M 0,595.28 H 841.89 V 0 H 0 Z"
         transform="translate(-456.33591,-387.04541)"
         id="path280" />
    </clipPath>
    <clipPath
       clipPathUnits="userSpaceOnUse"
       id="clipPath282">
      <path
         d="M 0,595.28 H 841.89 V 0 H 0 Z"
         transform="translate(-447.16991,-402.48631)"
         id="path282" />
    </clipPath>
    <clipPath
       clipPathUnits="userSpaceOnUse"
       id="clipPath284">
      <path
         d="M 0,595.28 H 841.89 V 0 H 0 Z"
         transform="translate(-447.75001,-396.05371)"
         id="path284" />
    </clipPath>
    <clipPath
       clipPathUnits="userSpaceOnUse"
       id="clipPath286">
      <path
         d="M 0,595.28 H 841.89 V 0 H 0 Z"
         transform="translate(-472.48541,-385.33741)"
         id="path286" />
    </clipPath>
    <clipPath
       clipPathUnits="userSpaceOnUse"
       id="clipPath288">
      <path
         d="M 0,595.28 H 841.89 V 0 H 0 Z"
         transform="translate(-484.92581,-398.28561)"
         id="path288" />
    </clipPath>
    <clipPath
       clipPathUnits="userSpaceOnUse"
       id="clipPath290">
      <path
         d="M 0,595.28 H 841.89 V 0 H 0 Z"
         transform="translate(-478.87991,-396.01321)"
         id="path290" />
    </clipPath>
    <clipPath
       clipPathUnits="userSpaceOnUse"
       id="clipPath292">
      <path
         d="M 0,595.28 H 841.89 V 0 H 0 Z"
         transform="translate(-481.25881,-374.57371)"
         id="path292" />
    </clipPath>
    <clipPath
       clipPathUnits="userSpaceOnUse"
       id="clipPath294">
      <path
         d="M 0,595.28 H 841.89 V 0 H 0 Z"
         transform="translate(-499.21391,-374.27251)"
         id="path294" />
    </clipPath>
    <clipPath
       clipPathUnits="userSpaceOnUse"
       id="clipPath296">
      <path
         d="M 0,595.28 H 841.89 V 0 H 0 Z"
         transform="translate(-493.43361,-377.15481)"
         id="path296" />
    </clipPath>
    <clipPath
       clipPathUnits="userSpaceOnUse"
       id="clipPath298">
      <path
         d="M 0,595.28 H 841.89 V 0 H 0 Z"
         transform="translate(-476.17871,-362.15971)"
         id="path298" />
    </clipPath>
    <clipPath
       clipPathUnits="userSpaceOnUse"
       id="clipPath300">
      <path
         d="M 0,595.28 H 841.89 V 0 H 0 Z"
         transform="translate(-488.58591,-349.17971)"
         id="path300" />
    </clipPath>
    <clipPath
       clipPathUnits="userSpaceOnUse"
       id="clipPath302">
      <path
         d="M 0,595.28 H 841.89 V 0 H 0 Z"
         transform="translate(-486.57231,-355.31641)"
         id="path302" />
    </clipPath>
    <clipPath
       clipPathUnits="userSpaceOnUse"
       id="clipPath305">
      <path
         d="M 0,595.28 H 841.89 V 0 H 0 Z"
         transform="translate(-510.83452,-358.75291)"
         id="path305" />
    </clipPath>
    <clipPath
       clipPathUnits="userSpaceOnUse"
       id="clipPath307">
      <path
         d="M 0,595.28 H 841.89 V 0 H 0 Z"
         id="path307" />
    </clipPath>
    <clipPath
       clipPathUnits="userSpaceOnUse"
       id="clipPath309">
      <path
         d="M 0,595.28 H 841.89 V 0 H 0 Z"
         transform="translate(-581.22271,-318.80571)"
         id="path309" />
    </clipPath>
    <clipPath
       clipPathUnits="userSpaceOnUse"
       id="clipPath311">
      <path
         d="M 0,595.28 H 841.89 V 0 H 0 Z"
         transform="translate(-637.19042,-347.87651)"
         id="path311" />
    </clipPath>
    <clipPath
       clipPathUnits="userSpaceOnUse"
       id="clipPath313">
      <path
         d="M 0,595.28 H 841.89 V 0 H 0 Z"
         transform="translate(-663.66892,-319.54391)"
         id="path313" />
    </clipPath>
    <clipPath
       clipPathUnits="userSpaceOnUse"
       id="clipPath315">
      <path
         d="M 0,595.28 H 841.89 V 0 H 0 Z"
         transform="translate(-710.50492,-342.34421)"
         id="path315" />
    </clipPath>
    <clipPath
       clipPathUnits="userSpaceOnUse"
       id="clipPath317">
      <path
         d="M 0,595.28 H 841.89 V 0 H 0 Z"
         transform="translate(-730.29792,-327.14401)"
         id="path317" />
    </clipPath>
    <clipPath
       clipPathUnits="userSpaceOnUse"
       id="clipPath319">
      <path
         d="M 0,595.28 H 841.89 V 0 H 0 Z"
         transform="translate(-758.76459,-334.26071)"
         id="path319" />
    </clipPath>
    <clipPath
       clipPathUnits="userSpaceOnUse"
       id="clipPath322">
      <path
         d="M 0,595.28 H 841.89 V 0 H 0 Z"
         transform="translate(-601.58842,-298.19091)"
         id="path322" />
    </clipPath>
    <clipPath
       clipPathUnits="userSpaceOnUse"
       id="clipPath324">
      <path
         d="M 0,595.28 H 841.89 V 0 H 0 Z"
         transform="translate(-633.31841,-306.47561)"
         id="path324" />
    </clipPath>
    <clipPath
       clipPathUnits="userSpaceOnUse"
       id="clipPath326">
      <path
         d="M 0,595.28 H 841.89 V 0 H 0 Z"
         transform="translate(-648.77342,-306.91891)"
         id="path326" />
    </clipPath>
    <clipPath
       clipPathUnits="userSpaceOnUse"
       id="clipPath328">
      <path
         d="M 0,595.28 H 841.89 V 0 H 0 Z"
         transform="translate(-694.61621,-275.31011)"
         id="path328" />
    </clipPath>
    <clipPath
       clipPathUnits="userSpaceOnUse"
       id="clipPath330">
      <path
         d="M 0,595.28 H 841.89 V 0 H 0 Z"
         transform="translate(-715.48242,-306.91891)"
         id="path330" />
    </clipPath>
    <clipPath
       clipPathUnits="userSpaceOnUse"
       id="clipPath332">
      <path
         d="M 0,595.28 H 841.89 V 0 H 0 Z"
         transform="translate(-770.61624,-298.19091)"
         id="path332" />
    </clipPath>
    <clipPath
       clipPathUnits="userSpaceOnUse"
       id="clipPath334">
      <path
         d="M 0,595.28 H 841.89 V 0 H 0 Z"
         transform="translate(-463.69241,-359.73541)"
         id="path334" />
    </clipPath>
    <clipPath
       clipPathUnits="userSpaceOnUse"
       id="clipPath336">
      <path
         d="M 0,595.28 H 841.89 V 0 H 0 Z"
         transform="translate(-463.69241,-359.73541)"
         id="path336" />
    </clipPath>
    <clipPath
       clipPathUnits="userSpaceOnUse"
       id="clipPath338">
      <path
         d="M 0,595.28 H 841.89 V 0 H 0 Z"
         transform="translate(-481.25981,-311.76221)"
         id="path338" />
    </clipPath>
    <clipPath
       clipPathUnits="userSpaceOnUse"
       id="clipPath340">
      <path
         d="M 0,595.28 H 841.89 V 0 H 0 Z"
         transform="translate(-430.58401,-263.79)"
         id="path340" />
    </clipPath>
    <clipPath
       clipPathUnits="userSpaceOnUse"
       id="clipPath342">
      <path
         d="M 0,595.28 H 841.89 V 0 H 0 Z"
         transform="translate(-498.82711,-263.79)"
         id="path342" />
    </clipPath>
    <clipPath
       clipPathUnits="userSpaceOnUse"
       id="clipPath344">
      <path
         d="M 0,595.28 H 841.89 V 0 H 0 Z"
         transform="translate(-447.13771,-311.76221)"
         id="path344" />
    </clipPath>
    <clipPath
       clipPathUnits="userSpaceOnUse"
       id="clipPath348">
      <path
         d="M 0,595.28 H 841.89 V 0 H 0 Z"
         transform="translate(-469.94041,-370.83841)"
         id="path348" />
    </clipPath>
  </defs>
  <g
     inkscape:label="Layer 1"
     inkscape:groupmode="layer"
     id="layer1"
     transform="translate(-41.804166,-122.50209)">
    <path
       id="path259"
       d="M 0,0 46.636,44.148"
       style="fill:none;stroke:#294d9a;stroke-width:1;stroke-linecap:round;stroke-linejoin:round;stroke-miterlimit:10;stroke-dasharray:none;stroke-opacity:1"
       transform="matrix(0.35277776,0,0,-0.35277776,46.475828,173.83915)"
       clip-path="url(#clipPath260)" />
    <path
       id="path261"
       d="M 0,0 -47.648,44.222"
       style="fill:none;stroke:#294d9a;stroke-width:1;stroke-linecap:round;stroke-linejoin:round;stroke-miterlimit:10;stroke-dasharray:none;stroke-opacity:1"
       transform="matrix(0.35277776,0,0,-0.35277776,67.876068,174.21814)"
       clip-path="url(#clipPath262)" />
    <path
       id="path263"
       d="M 0,0 25.845,22.603"
       style="fill:none;stroke:#294d9a;stroke-width:1;stroke-linecap:round;stroke-linejoin:round;stroke-miterlimit:10;stroke-dasharray:none;stroke-opacity:1"
       transform="matrix(0.35277776,0,0,-0.35277776,51.110867,158.52934)"
       clip-path="url(#clipPath264)" />
    <path
       id="path265"
       d="M 0,0 -26.322,22.603"
       style="fill:none;stroke:#294d9a;stroke-width:1;stroke-linecap:round;stroke-linejoin:round;stroke-miterlimit:10;stroke-dasharray:none;stroke-opacity:1"
       transform="matrix(0.35277776,0,0,-0.35277776,62.9279,158.30885)"
       clip-path="url(#clipPath266)" />
    <path
       id="path267"
       d="M 0,0 -14.204,-10.985"
       style="fill:none;stroke:#294d9a;stroke-width:2;stroke-linecap:round;stroke-linejoin:round;stroke-miterlimit:10;stroke-dasharray:none;stroke-opacity:1"
       transform="matrix(0.35277776,0,0,-0.35277776,52.711808,138.33055)"
       clip-path="url(#clipPath268)" />
    <path
       id="path269"
       d="M 0,0 6.313,1.362"
       style="fill:none;stroke:#294d9a;stroke-width:2;stroke-linecap:round;stroke-linejoin:round;stroke-miterlimit:10;stroke-dasharray:none;stroke-opacity:1"
       transform="matrix(0.35277776,0,0,-0.35277776,47.700917,142.20595)"
       clip-path="url(#clipPath270)" />
    <path
       id="path271"
       d="M 0,0 -10.267,-9.353"
       style="fill:none;stroke:#294d9a;stroke-width:2;stroke-linecap:round;stroke-linejoin:round;stroke-miterlimit:10;stroke-dasharray:none;stroke-opacity:1"
       transform="matrix(0.35277776,0,0,-0.35277776,49.92818,141.72554)"
       clip-path="url(#clipPath272)" />
    <path
       id="path273"
       d="M 0,0 -17.633,3.392"
       style="fill:none;stroke:#294d9a;stroke-width:2;stroke-linecap:round;stroke-linejoin:round;stroke-miterlimit:10;stroke-dasharray:none;stroke-opacity:1"
       transform="matrix(0.35277776,0,0,-0.35277776,51.414715,133.884)"
       clip-path="url(#clipPath274)" />
    <path
       id="path275"
       d="M 0,0 5.195,-3.835"
       style="fill:none;stroke:#294d9a;stroke-width:2;stroke-linecap:round;stroke-linejoin:round;stroke-miterlimit:10;stroke-dasharray:none;stroke-opacity:1"
       transform="matrix(0.35277776,0,0,-0.35277776,45.194255,132.68734)"
       clip-path="url(#clipPath276)" />
    <path
       id="path277"
       d="M 0,0 -13.805,1.517"
       style="fill:none;stroke:#294d9a;stroke-width:2;stroke-linecap:round;stroke-linejoin:round;stroke-miterlimit:10;stroke-dasharray:none;stroke-opacity:1"
       transform="matrix(0.35277776,0,0,-0.35277776,47.027042,134.04038)"
       clip-path="url(#clipPath278)" />
    <path
       id="path279"
       d="M 0,0 -9.166,15.441"
       style="fill:none;stroke:#294d9a;stroke-width:2;stroke-linecap:round;stroke-linejoin:round;stroke-miterlimit:10;stroke-dasharray:none;stroke-opacity:1"
       transform="matrix(0.35277776,0,0,-0.35277776,54.135304,130.03082)"
       clip-path="url(#clipPath280)" />
    <path
       id="path281"
       d="M 0,0 0.58,-6.433"
       style="fill:none;stroke:#294d9a;stroke-width:2;stroke-linecap:round;stroke-linejoin:round;stroke-miterlimit:10;stroke-dasharray:none;stroke-opacity:1"
       transform="matrix(0.35277776,0,0,-0.35277776,50.901741,124.58361)"
       clip-path="url(#clipPath282)" />
    <path
       id="path283"
       d="M 0,0 -8.026,11.333"
       style="fill:none;stroke:#294d9a;stroke-width:2;stroke-linecap:round;stroke-linejoin:round;stroke-miterlimit:10;stroke-dasharray:none;stroke-opacity:1"
       transform="matrix(0.35277776,0,0,-0.35277776,51.106388,126.85289)"
       clip-path="url(#clipPath284)" />
    <path
       id="path285"
       d="M 0,0 12.44,12.948"
       style="fill:none;stroke:#294d9a;stroke-width:2;stroke-linecap:round;stroke-linejoin:round;stroke-miterlimit:10;stroke-dasharray:none;stroke-opacity:1"
       transform="matrix(0.35277776,0,0,-0.35277776,59.832486,130.63336)"
       clip-path="url(#clipPath286)" />
    <path
       id="path287"
       d="M 0,0 -6.046,-2.272"
       style="fill:none;stroke:#294d9a;stroke-width:2;stroke-linecap:round;stroke-linejoin:round;stroke-miterlimit:10;stroke-dasharray:none;stroke-opacity:1"
       transform="matrix(0.35277776,0,0,-0.35277776,64.221183,126.06552)"
       clip-path="url(#clipPath288)" />
    <path
       id="path289"
       d="M 0,0 8.785,10.756"
       style="fill:none;stroke:#294d9a;stroke-width:2;stroke-linecap:round;stroke-linejoin:round;stroke-miterlimit:10;stroke-dasharray:none;stroke-opacity:1"
       transform="matrix(0.35277776,0,0,-0.35277776,62.088324,126.86718)"
       clip-path="url(#clipPath290)" />
    <path
       id="path291"
       d="M 0,0 17.955,-0.301"
       style="fill:none;stroke:#294d9a;stroke-width:2;stroke-linecap:round;stroke-linejoin:round;stroke-miterlimit:10;stroke-dasharray:none;stroke-opacity:1"
       transform="matrix(0.35277776,0,0,-0.35277776,62.927548,134.43056)"
       clip-path="url(#clipPath292)" />
    <path
       id="path293"
       d="M 0,0 -5.78,2.882"
       style="fill:none;stroke:#294d9a;stroke-width:2;stroke-linecap:round;stroke-linejoin:round;stroke-miterlimit:10;stroke-dasharray:none;stroke-opacity:1"
       transform="matrix(0.35277776,0,0,-0.35277776,69.261707,134.53681)"
       clip-path="url(#clipPath294)" />
    <path
       id="path295"
       d="M 0,0 13.859,0.885"
       style="fill:none;stroke:#294d9a;stroke-width:2;stroke-linecap:round;stroke-linejoin:round;stroke-miterlimit:10;stroke-dasharray:none;stroke-opacity:1"
       transform="matrix(0.35277776,0,0,-0.35277776,67.222548,133.52)"
       clip-path="url(#clipPath296)" />
    <path
       id="path297"
       d="M 0,0 12.407,-12.98"
       style="fill:none;stroke:#294d9a;stroke-width:2;stroke-linecap:round;stroke-linejoin:round;stroke-miterlimit:10;stroke-dasharray:none;stroke-opacity:1"
       transform="matrix(0.35277776,0,0,-0.35277776,61.135401,138.80994)"
       clip-path="url(#clipPath298)" />
    <path
       id="path299"
       d="M 0,0 -2.014,6.137"
       style="fill:none;stroke:#294d9a;stroke-width:2;stroke-linecap:round;stroke-linejoin:round;stroke-miterlimit:10;stroke-dasharray:none;stroke-opacity:1"
       transform="matrix(0.35277776,0,0,-0.35277776,65.512387,143.38899)"
       clip-path="url(#clipPath300)" />
    <path
       id="path301"
       d="M 0,0 10.373,-9.234"
       style="fill:none;stroke:#294d9a;stroke-width:2;stroke-linecap:round;stroke-linejoin:round;stroke-miterlimit:10;stroke-dasharray:none;stroke-opacity:1"
       transform="matrix(0.35277776,0,0,-0.35277776,64.802033,141.2241)"
       clip-path="url(#clipPath302)" />
    <path
       id="path303"
       d="m 76.147754,140.01428 c 0.12609,0 0.241846,0.0455 0.347266,0.13643 0.107487,0.0909 0.179834,0.17777 0.219108,0.26045 l 3.447851,7.73906 v -7.73906 c 0,-0.0827 0.03514,-0.1695 0.107487,-0.26045 0.07441,-0.0909 0.171566,-0.13643 0.293522,-0.13643 h 2.2903 c 0.12609,0 0.223242,0.0455 0.289387,0.13643 0.06615,0.0909 0.09922,0.17777 0.09922,0.26045 v 13.43174 c 0,0.0827 -0.03307,0.1695 -0.09922,0.26045 -0.06614,0.0909 -0.163297,0.13642 -0.289387,0.13642 h -0.3514 l -0.0083,0.0124 h -2.377116 c -0.127124,0 -0.243913,-0.0475 -0.3514,-0.14056 -0.107486,-0.091 -0.180866,-0.17673 -0.219107,-0.25631 l -3.505729,-7.86309 v 7.85069 c 0,0.0827 -0.03307,0.1695 -0.09922,0.26045 -0.06614,0.0909 -0.16123,0.13642 -0.285254,0.13642 h -2.302701 c -0.121957,0 -0.217041,-0.0455 -0.285254,-0.13642 -0.06925,-0.0909 -0.103353,-0.17777 -0.103353,-0.26045 v -13.43174 c 0,-0.0827 0.03514,-0.1695 0.107487,-0.26045 0.07131,-0.0909 0.167432,-0.13643 0.289388,-0.13643 z m 16.466178,11.14971 v -8.07392 h -3.923275 v 8.07392 z m 3.079915,-7.91269 v 7.75146 c 0,0.0641 -0.0021,0.13953 -0.0041,0.22738 -0.0031,0.0889 -0.0248,0.24288 -0.06615,0.46302 -0.04134,0.22117 -0.09922,0.43408 -0.173633,0.64078 -0.07235,0.20361 -0.185001,0.42582 -0.338997,0.6656 -0.155029,0.23978 -0.337964,0.44648 -0.549837,0.62011 -0.212907,0.17364 -0.490926,0.31936 -0.835091,0.43822 -0.342098,0.12092 -0.725537,0.1819 -1.149284,0.1819 h -6.961848 v -14.23789 l 5.523177,0.0124 h 0.851627 c 0.504362,0 0.960148,0.0579 1.368392,0.17363 0.407211,0.11575 0.736906,0.26355 0.988054,0.44235 0.253214,0.17673 0.471288,0.38447 0.65319,0.62425 0.183968,0.23978 0.31936,0.46302 0.405143,0.66973 0.08475,0.20463 0.150895,0.41651 0.198437,0.63665 0.04651,0.22117 0.07235,0.37517 0.07855,0.46302 0.0083,0.0889 0.0124,0.16433 0.0124,0.22738 z m 2.396753,10.5916 v -13.43174 c 0,-0.0827 0.03411,-0.1695 0.103352,-0.26045 0.06821,-0.0909 0.163298,-0.13643 0.285254,-0.13643 h 2.302704 c 0.12402,0 0.22014,0.0455 0.28939,0.13643 0.0713,0.0909 0.10335,0.17777 0.0951,0.26045 v 10.75283 h 4.12171 v -10.75283 c 0.008,-0.0827 0.0455,-0.1695 0.11162,-0.26045 0.0662,-0.0909 0.15813,-0.13643 0.27699,-0.13643 h 2.3027 c 0.12609,0 0.22324,0.0455 0.28939,0.13643 0.0662,0.0909 0.0992,0.17777 0.0992,0.26045 v 13.43174 c 0,0.0827 -0.0351,0.1695 -0.10335,0.26045 -0.0693,0.0909 -0.16744,0.13642 -0.29353,0.13642 h -9.491924 c -0.121956,0 -0.217041,-0.0455 -0.285254,-0.13642 -0.06925,-0.0909 -0.103352,-0.17777 -0.103352,-0.26045 z m 19.84065,-10.73216 h -4.11345 v 2.50113 h 6.80476 c 0.11782,0 0.21187,0.0455 0.28112,0.13643 0.0713,0.0909 0.10748,0.17777 0.10748,0.26045 v 7.83415 c 0,0.0827 -0.0362,0.1695 -0.10748,0.26045 -0.0692,0.0909 -0.1633,0.13642 -0.28112,0.13642 h -9.44645 c -0.0827,0 -0.1695,-0.0351 -0.26045,-0.10335 -0.091,-0.0692 -0.13643,-0.1633 -0.13643,-0.28112 v -3.39411 c 0,-0.0827 0.0341,-0.1695 0.10335,-0.26045 0.0682,-0.0909 0.1633,-0.13642 0.28526,-0.13642 h 2.3027 c 0.11782,0 0.21187,0.0455 0.28112,0.13642 0.0713,0.0909 0.10749,0.17777 0.10749,0.26045 v 0.7028 h 4.0721 v -2.4722 h -6.80062 c -0.12196,0 -0.21704,-0.0455 -0.28525,-0.13643 -0.0693,-0.093 -0.10336,-0.1819 -0.10336,-0.26458 v -7.86308 c 0,-0.0796 0.0341,-0.16537 0.10336,-0.25632 0.0682,-0.093 0.16329,-0.14056 0.28525,-0.14056 h 9.49193 c 0.11782,0 0.21187,0.0475 0.28112,0.14056 0.0713,0.0909 0.10748,0.17673 0.10748,0.25632 v 3.42304 c 0,0.0806 -0.0362,0.16743 -0.10748,0.26045 -0.0692,0.091 -0.1633,0.13643 -0.28112,0.13643 h -2.3027 c -0.12196,0 -0.21705,-0.0455 -0.28526,-0.13643 -0.0692,-0.093 -0.10335,-0.17983 -0.10335,-0.26045 z m 9.33483,-0.0207 h -3.47679 c -0.0827,0 -0.1695,-0.0341 -0.26045,-0.10336 -0.091,-0.0682 -0.13643,-0.16329 -0.13643,-0.28525 v -2.29857 c 0,-0.12609 0.0455,-0.22324 0.13643,-0.28939 0.0909,-0.0661 0.17777,-0.0992 0.26045,-0.0992 h 10.03349 c 0.0796,0 0.16537,0.0331 0.25632,0.0992 0.093,0.0662 0.14056,0.1633 0.14056,0.28939 v 2.29857 c 0,0.12196 -0.0476,0.21704 -0.14056,0.28525 -0.091,0.0693 -0.17673,0.10336 -0.25632,0.10336 h -3.47679 v 10.75283 c 0,0.0827 -0.0362,0.1695 -0.10748,0.26045 -0.0692,0.0909 -0.1633,0.13642 -0.28112,0.13642 h -2.30271 c -0.12712,0 -0.22324,-0.0455 -0.28938,-0.13642 -0.0662,-0.0909 -0.0992,-0.17777 -0.0992,-0.26045 z m 16.51992,0 h -4.10518 v 2.71198 h 4.10518 z m -7.18096,-2.67891 c 0.005,-0.0331 0.0176,-0.0713 0.0372,-0.11576 0.0186,-0.0434 0.062,-0.10128 0.12816,-0.17363 0.0661,-0.0713 0.14056,-0.10748 0.22324,-0.10748 h 9.47952 c 0.12093,0 0.21601,0.0455 0.28526,0.13642 0.0682,0.0909 0.10335,0.17777 0.10335,0.26045 v 8.06979 c 0,0.0827 -0.0351,0.1695 -0.10335,0.26045 -0.0693,0.0909 -0.16433,0.13643 -0.28526,0.13643 h -1.56269 l 2.17041,4.96507 c 0.0434,0.063 0.0517,0.14469 0.0248,0.24391 -0.0279,0.10129 -0.10542,0.15296 -0.23151,0.15296 h -2.38952 c -0.11886,0 -0.23151,-0.0455 -0.339,-0.13642 -0.10748,-0.0909 -0.18086,-0.17777 -0.21911,-0.26045 l -2.17867,-4.96507 h -2.06706 v 4.96507 c 0,0.0827 -0.0351,0.1695 -0.10335,0.26045 -0.0693,0.0909 -0.1633,0.13642 -0.28112,0.13642 h -2.3027 c -0.12712,0 -0.22324,-0.0455 -0.28939,-0.13642 -0.0661,-0.0909 -0.0992,-0.17777 -0.0992,-0.26045 z m 14.15624,2.67891 h -1.10794 c -0.0827,0 -0.1695,-0.0341 -0.26045,-0.10336 -0.0909,-0.0682 -0.13642,-0.16329 -0.13642,-0.28525 v -2.29857 c 0,-0.12609 0.0455,-0.22324 0.13642,-0.28939 0.0909,-0.0661 0.17777,-0.0992 0.26045,-0.0992 h 5.2958 c 0.0827,0 0.1695,0.0331 0.26045,0.0992 0.091,0.0662 0.13643,0.1633 0.13643,0.28939 v 2.29857 c 0,0.12196 -0.0455,0.21704 -0.13643,0.28525 -0.0909,0.0693 -0.17776,0.10336 -0.26045,0.10336 h -1.10794 v 8.07392 h 1.10794 c 0.0827,0 0.1695,0.0331 0.26045,0.0992 0.091,0.0662 0.13643,0.1633 0.13643,0.28939 v 2.3027 c 0,0.11782 -0.0455,0.21187 -0.13643,0.28112 -0.0909,0.0682 -0.17776,0.10335 -0.26045,0.10335 h -5.2958 c -0.0827,0 -0.1695,-0.0351 -0.26045,-0.10335 -0.0909,-0.0692 -0.13642,-0.1633 -0.13642,-0.28112 v -2.3027 c 0,-0.12609 0.0455,-0.22324 0.13642,-0.28939 0.0909,-0.0661 0.17777,-0.0992 0.26045,-0.0992 h 1.10794 z m 10.05004,8.07392 h 6.79235 c 0.0827,0 0.16949,0.0331 0.26045,0.0992 0.093,0.0662 0.14055,0.1633 0.14055,0.28939 v 2.3027 c 0,0.11782 -0.0475,0.21187 -0.14055,0.28112 -0.091,0.0682 -0.17777,0.10335 -0.26045,0.10335 h -9.47953 c -0.12712,0 -0.22324,-0.0455 -0.28939,-0.13642 -0.0661,-0.0909 -0.0992,-0.17777 -0.0992,-0.26045 v -13.43174 c 0,-0.0827 0.0331,-0.1695 0.0992,-0.26045 0.0661,-0.0909 0.16227,-0.13643 0.28939,-0.13643 h 9.47953 c 0.0827,0 0.16949,0.0331 0.26045,0.0992 0.093,0.0662 0.14055,0.1633 0.14055,0.28939 v 2.29857 c 0,0.12195 -0.0475,0.21704 -0.14055,0.28525 -0.091,0.0693 -0.17777,0.10336 -0.26045,0.10336 h -6.79235 v 2.4846 h 5.22138 c 0.0765,0 0.16123,0.0331 0.25218,0.0992 0.091,0.0661 0.13643,0.16329 0.13643,0.28938 v 2.30271 c 0,0.11885 -0.0455,0.2129 -0.13643,0.28112 -0.0909,0.0692 -0.1757,0.10335 -0.25218,0.10335 h -5.22138 z m 0,0"
       style="fill:#294d9a;fill-opacity:1;fill-rule:nonzero;stroke:none;stroke-width:0.352778"
       aria-label="ndustrie" />
    <path
       id="path304"
       d="m 0,0 c -0.34,0 -0.613,-0.13 -0.819,-0.39 -0.206,-0.259 -0.309,-0.506 -0.309,-0.738 v -38.081 c 0,-0.232 0.098,-0.479 0.295,-0.738 0.197,-0.26 0.466,-0.39 0.806,-0.39 h 6.526 c 0.358,0 0.631,0.13 0.819,0.39 0.188,0.259 0.282,0.506 0.282,0.738 v 22.263 l 9.937,-22.29 c 0.107,-0.232 0.313,-0.479 0.617,-0.739 0.304,-0.259 0.636,-0.389 0.994,-0.389 h 6.741 l 0.027,0.027 h 0.993 c 0.358,0 0.632,0.13 0.819,0.39 0.189,0.259 0.282,0.506 0.282,0.738 v 38.081 c 0,0.232 -0.093,0.479 -0.282,0.738 C 27.541,-0.13 27.267,0 26.909,0 H 20.41 C 20.07,0 19.797,-0.13 19.591,-0.39 19.385,-0.649 19.282,-0.896 19.282,-1.128 V -23.069 L 9.507,-1.128 C 9.399,-0.896 9.193,-0.649 8.889,-0.39 8.584,-0.13 8.253,0 7.896,0 Z"
       style="fill:none;stroke:#ffffff;stroke-width:1;stroke-linecap:butt;stroke-linejoin:miter;stroke-miterlimit:10;stroke-dasharray:none;stroke-opacity:1"
       transform="matrix(0.35277776,0,0,-0.35277776,73.361198,140.01178)"
       clip-path="url(#clipPath305)" />
    <path
       id="path306"
       d="m 554.313,350.025 h 11.118 v -22.881 h -11.118 z m 19.82,0.188 c -0.018,0.25 -0.094,0.689 -0.229,1.316 -0.133,0.626 -0.322,1.231 -0.563,1.813 -0.242,0.581 -0.623,1.212 -1.142,1.893 -0.519,0.68 -1.137,1.271 -1.853,1.772 -0.716,0.501 -1.652,0.918 -2.806,1.249 -1.155,0.331 -2.449,0.497 -3.881,0.497 h -2.417 l -15.657,0.027 v -40.364 h 15.362 4.377 c 1.199,0 2.287,0.17 3.263,0.51 0.976,0.341 1.764,0.757 2.363,1.249 0.6,0.492 1.119,1.079 1.558,1.759 0.439,0.681 0.761,1.312 0.967,1.893 0.206,0.582 0.367,1.186 0.483,1.813 0.117,0.627 0.179,1.065 0.188,1.316 0.009,0.251 0.014,0.465 0.014,0.645 v 21.967 c 0,0.179 -0.01,0.394 -0.027,0.645 z"
       style="fill:none;stroke:#ffffff;stroke-width:1;stroke-linecap:butt;stroke-linejoin:miter;stroke-miterlimit:10;stroke-dasharray:none;stroke-opacity:1"
       transform="matrix(0.35277776,0,0,-0.35277776,-106.84986,266.57183)"
       clip-path="url(#clipPath307)" />
    <path
       id="path308"
       d="m 0,0 c 0.197,-0.26 0.466,-0.39 0.806,-0.39 h 19.308 7.601 c 0.358,0 0.636,0.13 0.833,0.39 0.196,0.259 0.295,0.506 0.295,0.738 v 38.081 c 0,0.233 -0.094,0.479 -0.282,0.739 -0.188,0.259 -0.461,0.389 -0.82,0.389 h -6.525 c -0.34,0 -0.605,-0.13 -0.792,-0.389 -0.189,-0.26 -0.291,-0.506 -0.31,-0.739 V 8.338 H 8.433 V 38.819 C 8.45,39.052 8.361,39.298 8.164,39.558 7.967,39.817 7.689,39.947 7.331,39.947 H 0.806 c -0.34,0 -0.609,-0.13 -0.806,-0.389 -0.197,-0.26 -0.295,-0.506 -0.295,-0.739 V 0.738 C -0.295,0.506 -0.197,0.259 0,0 Z"
       style="fill:none;stroke:#ffffff;stroke-width:1;stroke-linecap:butt;stroke-linejoin:miter;stroke-miterlimit:10;stroke-dasharray:none;stroke-opacity:1"
       transform="matrix(0.35277776,0,0,-0.35277776,98.19259,154.10427)"
       clip-path="url(#clipPath309)" />
    <path
       id="path310"
       d="m 0,0 c 0,-0.233 0.098,-0.479 0.295,-0.739 0.197,-0.259 0.466,-0.389 0.806,-0.389 h 6.526 c 0.34,0 0.608,0.13 0.805,0.389 0.197,0.26 0.296,0.506 0.296,0.739 v 9.695 c 0,0.232 -0.099,0.479 -0.296,0.738 -0.197,0.26 -0.465,0.39 -0.805,0.39 H 2.416 2.282 -13.885 -19.283 c -0.34,0 -0.609,-0.13 -0.805,-0.39 -0.197,-0.259 -0.296,-0.506 -0.296,-0.738 v -22.29 c 0,-0.233 0.099,-0.479 0.296,-0.738 0.196,-0.26 0.465,-0.39 0.805,-0.39 H -16.865 0 v -7.009 h -11.549 v 1.987 c 0,0.232 -0.097,0.479 -0.295,0.739 -0.197,0.259 -0.466,0.389 -0.805,0.389 h -6.527 c -0.34,0 -0.608,-0.13 -0.804,-0.389 -0.198,-0.26 -0.296,-0.507 -0.296,-0.739 v -9.614 c 0,-0.34 0.13,-0.609 0.389,-0.806 0.259,-0.197 0.506,-0.295 0.739,-0.295 H 5.209 7.627 c 0.34,0 0.608,0.129 0.805,0.389 0.197,0.259 0.296,0.506 0.296,0.738 v 22.21 c 0,0.232 -0.099,0.479 -0.296,0.739 -0.197,0.259 -0.465,0.389 -0.805,0.389 h -2.418 -8.352 -8.513 v 7.09 L 0,2.095 Z"
       style="fill:none;stroke:#ffffff;stroke-width:1;stroke-linecap:butt;stroke-linejoin:miter;stroke-miterlimit:10;stroke-dasharray:none;stroke-opacity:1"
       transform="matrix(0.35277776,0,0,-0.35277776,117.93675,143.84873)"
       clip-path="url(#clipPath311)" />
    <path
       id="path312"
       d="m 0,0 c 0,-0.232 0.095,-0.479 0.282,-0.738 0.189,-0.26 0.461,-0.39 0.82,-0.39 h 6.525 c 0.341,0 0.609,0.13 0.807,0.39 C 8.63,-0.479 8.729,-0.232 8.729,0 v 30.481 h 9.855 c 0.233,0 0.479,0.098 0.739,0.295 0.259,0.197 0.39,0.466 0.39,0.806 v 6.526 c 0,0.358 -0.131,0.631 -0.39,0.819 -0.26,0.188 -0.506,0.282 -0.739,0.282 H 4.352 -9.855 c -0.233,0 -0.48,-0.094 -0.739,-0.282 -0.26,-0.188 -0.389,-0.461 -0.389,-0.819 v -6.526 c 0,-0.34 0.129,-0.609 0.389,-0.806 0.259,-0.197 0.506,-0.295 0.739,-0.295 H 0 Z"
       style="fill:none;stroke:#ffffff;stroke-width:1;stroke-linecap:butt;stroke-linejoin:miter;stroke-miterlimit:10;stroke-dasharray:none;stroke-opacity:1"
       transform="matrix(0.35277776,0,0,-0.35277776,127.27778,153.84385)"
       clip-path="url(#clipPath313)" />
    <path
       id="path314"
       d="m 0,0 h -4.351 -7.278 V 7.681 H 0 Z m -20.356,-22.8 c 0,-0.233 0.093,-0.479 0.282,-0.739 0.187,-0.259 0.461,-0.389 0.818,-0.389 h 6.527 c 0.339,0 0.608,0.13 0.805,0.389 0.197,0.26 0.295,0.506 0.295,0.739 v 14.072 h 5.856 L 0.402,-22.8 c 0.108,-0.233 0.314,-0.479 0.619,-0.739 0.304,-0.259 0.626,-0.389 0.966,-0.389 h 6.768 c 0.358,0 0.577,0.143 0.658,0.429 0.08,0.287 0.058,0.52 -0.067,0.699 L 3.195,-8.728 h 4.432 c 0.34,0 0.608,0.13 0.806,0.39 0.197,0.259 0.296,0.505 0.296,0.738 v 22.881 c 0,0.232 -0.099,0.479 -0.296,0.738 -0.198,0.26 -0.466,0.39 -0.806,0.39 h -6.499 -17.966 -2.418 c -0.232,0 -0.442,-0.103 -0.631,-0.309 -0.187,-0.206 -0.308,-0.372 -0.362,-0.497 -0.054,-0.125 -0.09,-0.233 -0.107,-0.322 z"
       style="fill:none;stroke:#ffffff;stroke-width:1;stroke-linecap:butt;stroke-linejoin:miter;stroke-miterlimit:10;stroke-dasharray:none;stroke-opacity:1"
       transform="matrix(0.35277776,0,0,-0.35277776,143.80048,145.80041)"
       clip-path="url(#clipPath315)" />
    <path
       id="path316"
       d="m 0,0 h -3.143 c -0.232,0 -0.479,-0.094 -0.738,-0.282 -0.26,-0.188 -0.39,-0.461 -0.39,-0.819 v -6.526 c 0,-0.34 0.13,-0.608 0.39,-0.806 0.259,-0.196 0.506,-0.295 0.738,-0.295 h 7.493 7.519 c 0.234,0 0.48,0.099 0.739,0.295 0.259,0.198 0.39,0.466 0.39,0.806 v 6.526 c 0,0.358 -0.131,0.631 -0.39,0.819 C 12.349,-0.094 12.103,0 11.869,0 H 8.728 v 22.881 h 3.141 c 0.234,0 0.48,0.098 0.739,0.295 0.259,0.197 0.39,0.466 0.39,0.806 v 6.526 c 0,0.358 -0.131,0.631 -0.39,0.819 -0.259,0.188 -0.505,0.282 -0.739,0.282 H 4.35 -3.143 c -0.232,0 -0.479,-0.094 -0.738,-0.282 -0.26,-0.188 -0.39,-0.461 -0.39,-0.819 v -6.526 c 0,-0.34 0.13,-0.609 0.39,-0.806 0.259,-0.197 0.506,-0.295 0.738,-0.295 H 0 Z"
       style="fill:none;stroke:#ffffff;stroke-width:1;stroke-linecap:butt;stroke-linejoin:miter;stroke-miterlimit:10;stroke-dasharray:none;stroke-opacity:1"
       transform="matrix(0.35277776,0,0,-0.35277776,150.78301,151.1627)"
       clip-path="url(#clipPath317)" />
    <path
       id="path318"
       d="m 0,0 h 14.797 c 0.215,0 0.452,0.098 0.712,0.295 0.259,0.197 0.389,0.466 0.389,0.806 v 6.526 c 0,0.358 -0.13,0.631 -0.389,0.819 -0.26,0.188 -0.497,0.282 -0.712,0.282 H 7.277 0 v 7.036 h 19.255 c 0.232,0 0.478,0.098 0.738,0.296 0.26,0.196 0.39,0.465 0.39,0.805 v 6.526 c 0,0.358 -0.13,0.631 -0.39,0.819 -0.26,0.188 -0.506,0.282 -0.738,0.282 h -7.52 -7.493 -9.453 -2.416 c -0.358,0 -0.632,-0.13 -0.819,-0.389 -0.189,-0.26 -0.283,-0.506 -0.283,-0.739 v -38.081 c 0,-0.232 0.094,-0.479 0.283,-0.738 0.187,-0.26 0.461,-0.39 0.819,-0.39 h 5.398 6.471 15.013 c 0.232,0 0.478,0.099 0.738,0.296 0.26,0.197 0.39,0.466 0.39,0.805 v 6.526 c 0,0.358 -0.13,0.631 -0.39,0.82 -0.26,0.187 -0.506,0.281 -0.738,0.281 h -7.52 L 0,-7.117 Z"
       style="fill:none;stroke:#ffffff;stroke-width:1;stroke-linecap:butt;stroke-linejoin:miter;stroke-miterlimit:10;stroke-dasharray:none;stroke-opacity:1"
       transform="matrix(0.35277776,0,0,-0.35277776,160.82542,148.65209)"
       clip-path="url(#clipPath319)" />
    <path
       id="path320"
       d="m 101.26353,161.37628 v 8.07393 h 4.11345 v -1.87689 h -1.10795 c -0.0827,0 -0.16949,-0.0341 -0.26045,-0.10335 -0.0909,-0.0682 -0.13642,-0.1633 -0.13642,-0.28526 v -2.3027 c 0,-0.12609 0.0455,-0.22324 0.13642,-0.28938 0.091,-0.0662 0.17777,-0.0992 0.26045,-0.0992 h 3.79926 c 0.11782,0 0.21187,0.0475 0.28111,0.14056 0.0713,0.0909 0.10749,0.17776 0.10749,0.26045 v 7.2347 c 0,0.0827 -0.0362,0.16949 -0.10749,0.26044 -0.0692,0.091 -0.16329,0.13643 -0.28111,0.13643 h -9.491932 c -0.127124,0 -0.223242,-0.0455 -0.289388,-0.13643 -0.06614,-0.0909 -0.09922,-0.17776 -0.09922,-0.26044 V 158.6974 c 0,-0.0827 0.03307,-0.1695 0.09922,-0.26045 0.06615,-0.0909 0.162264,-0.13643 0.289388,-0.13643 h 9.491932 c 0.11782,0 0.21187,0.0455 0.28111,0.13643 0.0713,0.091 0.10749,0.17777 0.10749,0.26045 v 4.36562 c 0,0.0827 -0.0362,0.17157 -0.10749,0.26459 -0.0692,0.091 -0.16329,0.13642 -0.28111,0.13642 h -2.30271 c -0.12712,0 -0.22324,-0.0455 -0.28938,-0.13642 -0.0662,-0.093 -0.0992,-0.1819 -0.0992,-0.26459 v -1.68672 z m 15.46572,-2.66237 3.54294,13.41521 c 0.0186,0.0827 0.008,0.16949 -0.0331,0.26044 -0.0413,0.091 -0.12609,0.13643 -0.25218,0.13643 h -2.38539 c -0.12195,0 -0.22737,-0.0455 -0.31832,-0.13643 -0.091,-0.0909 -0.14883,-0.17776 -0.17364,-0.26044 l -0.3886,-1.46762 h -3.32797 l -0.3886,1.46762 c -0.0248,0.0827 -0.0816,0.16949 -0.1695,0.26044 -0.0889,0.091 -0.19637,0.13643 -0.32246,0.13643 h -2.38539 c -0.12195,0 -0.20463,-0.0455 -0.24804,-0.13643 -0.0444,-0.0909 -0.0568,-0.17776 -0.0372,-0.26044 l 3.5264,-13.41521 c 0.0165,-0.0796 0.0703,-0.16536 0.16123,-0.25631 0.093,-0.093 0.20361,-0.14056 0.33073,-0.14056 h 2.37712 c 0.12609,0 0.23564,0.0475 0.32659,0.14056 0.0909,0.0909 0.14573,0.17673 0.16536,0.25631 z m -0.82268,8.86768 -0.85577,-3.23701 -0.85162,3.23701 z m 8.6465,-9.28109 c 0.12609,0 0.24391,0.0455 0.3514,0.13643 0.10748,0.091 0.1788,0.17777 0.21497,0.26045 l 2.84427,6.59391 2.84841,-6.59391 c 0.0331,-0.0827 0.10335,-0.1695 0.21084,-0.26045 0.10748,-0.0909 0.22427,-0.13643 0.35139,-0.13643 h 2.53008 c 0.12403,0 0.22014,0.0455 0.28939,0.13643 0.0713,0.091 0.10749,0.17777 0.10749,0.26045 v 13.43174 c 0,0.0827 -0.0362,0.16949 -0.10749,0.26044 -0.0692,0.091 -0.1633,0.13643 -0.28112,0.13643 H 131.61 c -0.12712,0 -0.22324,-0.0455 -0.28939,-0.13643 -0.0661,-0.0909 -0.0992,-0.17776 -0.0992,-0.26044 v -7.09414 l -2.4722,5.69267 c -0.0393,0.0827 -0.11059,0.1695 -0.21497,0.26045 -0.10232,0.0909 -0.21704,0.13643 -0.34313,0.13643 h -0.45476 c -0.12195,0 -0.23564,-0.0455 -0.34313,-0.13643 -0.10748,-0.0909 -0.17983,-0.17777 -0.21497,-0.26045 l -2.47634,-5.69267 v 7.09414 c 0,0.0827 -0.0331,0.16949 -0.0992,0.26044 -0.0662,0.091 -0.16124,0.13643 -0.28526,0.13643 h -2.3027 c -0.12196,0 -0.21704,-0.0455 -0.28525,-0.13643 -0.0693,-0.0909 -0.10336,-0.17776 -0.10336,-0.26044 v -13.43174 c 0,-0.0827 0.0351,-0.1695 0.10749,-0.26045 0.0713,-0.0909 0.16743,-0.13643 0.28939,-0.13643 z m 13.63431,3.07578 h -1.10795 c -0.0827,0 -0.16949,-0.0341 -0.26045,-0.10335 -0.091,-0.0682 -0.13642,-0.1633 -0.13642,-0.28525 v -2.29857 c 0,-0.12609 0.0455,-0.22324 0.13642,-0.28939 0.091,-0.0661 0.17777,-0.0992 0.26045,-0.0992 h 5.2958 c 0.0827,0 0.1695,0.0331 0.26045,0.0992 0.0909,0.0661 0.13643,0.1633 0.13643,0.28939 v 2.29857 c 0,0.12195 -0.0455,0.21704 -0.13643,0.28525 -0.091,0.0693 -0.17776,0.10335 -0.26045,0.10335 h -1.10794 v 8.07393 h 1.10794 c 0.0827,0 0.1695,0.0331 0.26045,0.0992 0.0909,0.0661 0.13643,0.1633 0.13643,0.28939 v 2.3027 c 0,0.11782 -0.0455,0.21187 -0.13643,0.28112 -0.091,0.0682 -0.17776,0.10335 -0.26045,0.10335 h -5.2958 c -0.0827,0 -0.16949,-0.0351 -0.26045,-0.10335 -0.091,-0.0693 -0.13642,-0.1633 -0.13642,-0.28112 v -2.3027 c 0,-0.12609 0.0455,-0.22325 0.13642,-0.28939 0.091,-0.0661 0.17777,-0.0992 0.26045,-0.0992 h 1.10795 z m 10.15751,-3.07578 c 0.12609,0 0.24185,0.0455 0.34727,0.13643 0.10749,0.091 0.17983,0.17777 0.21911,0.26045 l 3.44785,7.73906 v -7.73906 c 0,-0.0827 0.0351,-0.1695 0.10749,-0.26045 0.0744,-0.0909 0.17156,-0.13643 0.29352,-0.13643 h 2.2903 c 0.12609,0 0.22324,0.0455 0.28938,0.13643 0.0661,0.091 0.0992,0.17777 0.0992,0.26045 v 13.43174 c 0,0.0827 -0.0331,0.16949 -0.0992,0.26044 -0.0661,0.091 -0.16329,0.13643 -0.28938,0.13643 h -0.3514 l -0.008,0.0124 h -2.37711 c -0.12712,0 -0.24392,-0.0475 -0.3514,-0.14056 -0.10749,-0.0909 -0.18087,-0.17673 -0.21911,-0.25631 l -3.50573,-7.86309 v 7.85069 c 0,0.0827 -0.033,0.16949 -0.0992,0.26044 -0.0661,0.091 -0.16123,0.13643 -0.28525,0.13643 h -2.3027 c -0.12196,0 -0.21704,-0.0455 -0.28526,-0.13643 -0.0692,-0.0909 -0.10335,-0.17776 -0.10335,-0.26044 v -13.43174 c 0,-0.0827 0.0351,-0.1695 0.10749,-0.26045 0.0713,-0.0909 0.16743,-0.13643 0.28938,-0.13643 z m 12.54291,3.07578 v 8.07393 h 4.11344 v -1.87689 h -1.10794 c -0.0827,0 -0.1695,-0.0341 -0.26045,-0.10335 -0.0909,-0.0682 -0.13643,-0.1633 -0.13643,-0.28526 v -2.3027 c 0,-0.11782 0.0455,-0.21187 0.13643,-0.28112 0.091,-0.0713 0.17777,-0.10748 0.26045,-0.10748 h 3.79925 c 0.11782,0 0.21187,0.0475 0.28112,0.14056 0.0713,0.0909 0.10749,0.17776 0.10749,0.26045 v 7.2347 c 0,0.0827 -0.0362,0.16949 -0.10749,0.26044 -0.0693,0.091 -0.1633,0.13643 -0.28112,0.13643 h -9.49193 c -0.12195,0 -0.21704,-0.0455 -0.28525,-0.13643 -0.0692,-0.0909 -0.10335,-0.17776 -0.10335,-0.26044 v -13.43174 c 0,-0.0827 0.0341,-0.1695 0.10335,-0.26045 0.0682,-0.0909 0.1633,-0.13643 0.28525,-0.13643 h 9.49193 c 0.11782,0 0.21187,0.0455 0.28112,0.13643 0.0713,0.091 0.10749,0.17777 0.10749,0.26045 v 4.36562 c 0,0.0827 -0.0362,0.17157 -0.10749,0.26459 -0.0693,0.091 -0.1633,0.13642 -0.28112,0.13642 h -2.3027 c -0.12196,0 -0.21704,-0.0455 -0.28526,-0.13642 -0.0692,-0.093 -0.10335,-0.1819 -0.10335,-0.26459 v -1.68672 z m 0,0"
       style="fill:#de7e28;fill-opacity:1;fill-rule:nonzero;stroke:none;stroke-width:0.352778"
       aria-label="Gaming" />
    <path
       id="path321"
       d="M 0,0 V -4.78 C 0,-5.013 0.094,-5.259 0.282,-5.519 0.47,-5.778 0.743,-5.908 1.101,-5.908 h 6.526 c 0.34,0 0.608,0.13 0.806,0.389 0.196,0.26 0.295,0.506 0.295,0.739 V 7.6 c 0,0.233 -0.099,0.479 -0.295,0.738 -0.198,0.26 -0.466,0.39 -0.806,0.39 h -5.21 -19.282 -2.417 c -0.359,0 -0.632,-0.13 -0.819,-0.39 C -20.29,8.079 -20.383,7.833 -20.383,7.6 v -38.081 c 0,-0.232 0.093,-0.479 0.282,-0.738 0.187,-0.26 0.46,-0.39 0.819,-0.39 h 5.398 19.094 2.417 c 0.34,0 0.608,0.13 0.806,0.39 0.196,0.259 0.295,0.506 0.295,0.738 v 8.325 12.193 c 0,0.232 -0.099,0.479 -0.295,0.738 -0.198,0.26 -0.466,0.39 -0.806,0.39 H 5.21 -3.142 c -0.233,0 -0.479,-0.094 -0.738,-0.283 -0.26,-0.187 -0.39,-0.461 -0.39,-0.819 v -6.525 c 0,-0.341 0.13,-0.609 0.39,-0.806 0.259,-0.197 0.505,-0.295 0.738,-0.295 H 0 v -5.318 H -11.655 V 0 Z"
       style="fill:none;stroke:#ffffff;stroke-width:1;stroke-linecap:butt;stroke-linejoin:miter;stroke-miterlimit:10;stroke-dasharray:none;stroke-opacity:1"
       transform="matrix(0.35277776,0,0,-0.35277776,105.37716,161.37671)"
       clip-path="url(#clipPath322)" />
    <path
       id="path323"
       d="m 0,0 c -0.26,0.26 -0.569,0.39 -0.927,0.39 h -6.74 C -8.026,0.39 -8.334,0.26 -8.594,0 -8.854,-0.259 -9.01,-0.506 -9.064,-0.738 l -9.99,-38.028 c -0.054,-0.232 -0.018,-0.479 0.107,-0.738 0.125,-0.26 0.358,-0.39 0.698,-0.39 h 6.768 c 0.358,0 0.662,0.13 0.913,0.39 0.251,0.259 0.412,0.506 0.484,0.738 l 1.101,4.163 h 9.426 l 1.101,-4.163 c 0.071,-0.232 0.237,-0.479 0.497,-0.738 0.259,-0.26 0.559,-0.39 0.899,-0.39 h 6.768 c 0.358,0 0.595,0.13 0.712,0.39 0.116,0.259 0.147,0.506 0.094,0.738 L 0.47,-0.738 C 0.416,-0.506 0.259,-0.259 0,0 Z m -6.701,-25.875 2.417,9.185 2.417,-9.185 z"
       style="fill:none;stroke:#ffffff;stroke-width:1;stroke-linecap:butt;stroke-linejoin:miter;stroke-miterlimit:10;stroke-dasharray:none;stroke-opacity:1"
       transform="matrix(0.35277776,0,0,-0.35277776,116.57079,158.45405)"
       clip-path="url(#clipPath324)" />
    <path
       id="path325"
       d="m 0,0 c -0.34,0 -0.613,-0.13 -0.819,-0.39 -0.206,-0.259 -0.309,-0.506 -0.309,-0.738 v -38.081 c 0,-0.232 0.098,-0.479 0.295,-0.738 0.197,-0.26 0.466,-0.39 0.806,-0.39 h 6.526 c 0.358,0 0.631,0.13 0.819,0.39 0.188,0.259 0.283,0.506 0.283,0.738 v 20.115 l 7.008,-16.14 c 0.108,-0.233 0.314,-0.479 0.619,-0.739 0.303,-0.259 0.626,-0.389 0.966,-0.389 h 1.289 c 0.358,0 0.685,0.13 0.98,0.389 0.296,0.26 0.497,0.506 0.604,0.739 l 7.01,16.14 v -20.115 c 0,-0.232 0.094,-0.479 0.281,-0.738 0.189,-0.26 0.461,-0.39 0.82,-0.39 h 6.526 c 0.34,0 0.609,0.13 0.805,0.39 0.197,0.259 0.296,0.506 0.296,0.738 v 38.081 c 0,0.232 -0.099,0.479 -0.296,0.738 C 34.313,-0.13 34.035,0 33.677,0 h -7.17 c -0.359,0 -0.69,-0.13 -0.994,-0.39 -0.305,-0.259 -0.501,-0.506 -0.591,-0.738 L 16.839,-19.819 8.782,-1.128 C 8.675,-0.896 8.469,-0.649 8.164,-0.39 7.859,-0.13 7.528,0 7.171,0 Z"
       style="fill:none;stroke:#ffffff;stroke-width:1;stroke-linecap:butt;stroke-linejoin:miter;stroke-miterlimit:10;stroke-dasharray:none;stroke-opacity:1"
       transform="matrix(0.35277776,0,0,-0.35277776,122.02298,158.29767)"
       clip-path="url(#clipPath326)" />
    <path
       id="path327"
       d="m 0,0 h -3.143 c -0.232,0 -0.479,-0.094 -0.738,-0.282 -0.26,-0.188 -0.39,-0.461 -0.39,-0.819 v -6.526 c 0,-0.34 0.13,-0.608 0.39,-0.806 0.259,-0.196 0.506,-0.295 0.738,-0.295 h 7.493 7.519 c 0.234,0 0.48,0.099 0.739,0.295 0.259,0.198 0.39,0.466 0.39,0.806 v 6.526 c 0,0.358 -0.131,0.631 -0.39,0.819 C 12.349,-0.094 12.103,0 11.869,0 H 8.728 v 22.881 h 3.141 c 0.234,0 0.48,0.098 0.739,0.295 0.259,0.197 0.39,0.466 0.39,0.806 v 6.526 c 0,0.358 -0.131,0.631 -0.39,0.819 -0.259,0.188 -0.505,0.282 -0.739,0.282 H 4.35 -3.143 c -0.232,0 -0.479,-0.094 -0.738,-0.282 -0.26,-0.188 -0.39,-0.461 -0.39,-0.819 v -6.526 c 0,-0.34 0.13,-0.609 0.39,-0.806 0.259,-0.197 0.506,-0.295 0.738,-0.295 H 0 Z"
       style="fill:none;stroke:#ffffff;stroke-width:1;stroke-linecap:butt;stroke-linejoin:miter;stroke-miterlimit:10;stroke-dasharray:none;stroke-opacity:1"
       transform="matrix(0.35277776,0,0,-0.35277776,138.1953,169.44855)"
       clip-path="url(#clipPath328)" />
    <path
       id="path329"
       d="m 0,0 c -0.34,0 -0.613,-0.13 -0.819,-0.39 -0.206,-0.259 -0.309,-0.506 -0.309,-0.738 v -38.081 c 0,-0.232 0.099,-0.479 0.295,-0.738 0.197,-0.26 0.466,-0.39 0.807,-0.39 h 6.525 c 0.358,0 0.631,0.13 0.819,0.39 0.188,0.259 0.283,0.506 0.283,0.738 v 22.263 l 9.935,-22.29 c 0.108,-0.232 0.314,-0.479 0.618,-0.739 0.305,-0.259 0.636,-0.389 0.993,-0.389 h 6.742 l 0.026,0.027 h 0.994 c 0.359,0 0.631,0.13 0.82,0.39 0.187,0.259 0.282,0.506 0.282,0.738 v 38.081 c 0,0.232 -0.095,0.479 -0.282,0.738 C 27.54,-0.13 27.268,0 26.909,0 H 20.41 C 20.07,0 19.797,-0.13 19.591,-0.39 19.385,-0.649 19.282,-0.896 19.282,-1.128 V -23.069 L 9.507,-1.128 C 9.399,-0.896 9.193,-0.649 8.89,-0.39 8.585,-0.13 8.254,0 7.896,0 Z"
       style="fill:none;stroke:#ffffff;stroke-width:1;stroke-linecap:butt;stroke-linejoin:miter;stroke-miterlimit:10;stroke-dasharray:none;stroke-opacity:1"
       transform="matrix(0.35277776,0,0,-0.35277776,145.55643,158.29767)"
       clip-path="url(#clipPath330)" />
    <path
       id="path331"
       d="m 0,0 v -4.78 c 0,-0.233 0.099,-0.479 0.296,-0.739 0.197,-0.259 0.466,-0.389 0.806,-0.389 h 6.525 c 0.341,0 0.609,0.13 0.807,0.389 0.196,0.26 0.295,0.506 0.295,0.739 V 7.6 c 0,0.233 -0.099,0.479 -0.295,0.738 -0.198,0.26 -0.466,0.39 -0.807,0.39 h -26.908 c -0.341,0 -0.61,-0.13 -0.807,-0.39 -0.196,-0.259 -0.295,-0.505 -0.295,-0.738 v -38.081 c 0,-0.232 0.099,-0.479 0.295,-0.738 0.197,-0.26 0.466,-0.39 0.807,-0.39 H 7.627 c 0.341,0 0.609,0.13 0.807,0.39 0.196,0.259 0.295,0.506 0.295,0.738 v 20.518 c 0,0.232 -0.099,0.479 -0.295,0.738 -0.198,0.26 -0.466,0.39 -0.807,0.39 H -3.142 c -0.232,0 -0.479,-0.099 -0.738,-0.296 -0.26,-0.197 -0.39,-0.466 -0.39,-0.806 v -6.525 c 0,-0.341 0.13,-0.609 0.39,-0.806 0.259,-0.197 0.506,-0.295 0.738,-0.295 H 0 v -5.318 H -11.654 V 0 Z"
       style="fill:none;stroke:#ffffff;stroke-width:1;stroke-linecap:butt;stroke-linejoin:miter;stroke-miterlimit:10;stroke-dasharray:none;stroke-opacity:1"
       transform="matrix(0.35277776,0,0,-0.35277776,165.00642,161.37671)"
       clip-path="url(#clipPath332)" />
    <path
       id="path333"
       d="M 0,0 35.135,-95.945"
       style="fill:none;stroke:#de7e28;stroke-width:5;stroke-linecap:round;stroke-linejoin:round;stroke-miterlimit:10;stroke-dasharray:none;stroke-opacity:1"
       transform="matrix(0.35277776,0,0,-0.35277776,56.730512,139.66518)"
       clip-path="url(#clipPath334)" />
    <path
       id="path335"
       d="M 0,0 -33.108,-95.945"
       style="fill:none;stroke:#de7e28;stroke-width:5;stroke-linecap:round;stroke-linejoin:round;stroke-miterlimit:10;stroke-dasharray:none;stroke-opacity:1"
       transform="matrix(0.35277776,0,0,-0.35277776,56.730512,139.66518)"
       clip-path="url(#clipPath336)" />
    <path
       id="path337"
       d="M 0,0 -26.322,22.603"
       style="fill:none;stroke:#294d9a;stroke-width:3;stroke-linecap:round;stroke-linejoin:round;stroke-miterlimit:10;stroke-dasharray:none;stroke-opacity:1"
       transform="matrix(0.35277776,0,0,-0.35277776,62.9279,156.58906)"
       clip-path="url(#clipPath338)" />
    <path
       id="path339"
       d="M 0,0 50.676,47.972"
       style="fill:none;stroke:#294d9a;stroke-width:3;stroke-linecap:round;stroke-linejoin:round;stroke-miterlimit:10;stroke-dasharray:none;stroke-opacity:1"
       transform="matrix(0.35277776,0,0,-0.35277776,45.050605,173.51258)"
       clip-path="url(#clipPath340)" />
    <path
       id="path341"
       d="M 0,0 -51.689,47.972"
       style="fill:none;stroke:#294d9a;stroke-width:3;stroke-linecap:round;stroke-linejoin:round;stroke-miterlimit:10;stroke-dasharray:none;stroke-opacity:1"
       transform="matrix(0.35277776,0,0,-0.35277776,69.125254,173.51258)"
       clip-path="url(#clipPath342)" />
    <path
       id="path343"
       d="M 0,0 25.845,22.603"
       style="fill:none;stroke:#294d9a;stroke-width:3;stroke-linecap:round;stroke-linejoin:round;stroke-miterlimit:10;stroke-dasharray:none;stroke-opacity:1"
       transform="matrix(0.35277776,0,0,-0.35277776,50.890382,156.58906)"
       clip-path="url(#clipPath344)" />
    <path
       id="path347"
       d="m 0,0 1.452,-8.075 -7.294,3.758 -7.23,-3.877 1.32,8.098 -5.922,5.679 8.111,1.246 3.57,7.387 3.691,-7.327 8.129,-1.114 z"
       style="fill:#de7e28;fill-opacity:1;fill-rule:nonzero;stroke:none"
       transform="matrix(0.35277776,0,0,-0.35277776,58.934668,135.74829)"
       clip-path="url(#clipPath348)" />
  </g>
</svg>
